<svg width="1000" height="1000" viewBox="0 0 1000 1000" fill="none" xmlns="http://www.w3.org/2000/svg">
  <defs>
    <linearGradient id="ink" x1="140" y1="110" x2="860" y2="890" gradientUnits="userSpaceOnUse">
      <stop stop-color="#1E293B"/>
      <stop offset="0.55" stop-color="#0F172A"/>
      <stop offset="1" stop-color="#020617"/>
    </linearGradient>
    <linearGradient id="amber" x1="330" y1="340" x2="690" y2="690" gradientUnits="userSpaceOnUse">
      <stop stop-color="#FBBF24"/>
      <stop offset="0.5" stop-color="#F59E0B"/>
      <stop offset="1" stop-color="#D97706"/>
    </linearGradient>
    <radialGradient id="tealGlow" cx="0.5" cy="0.5" r="0.5">
      <stop stop-color="#22D3EE" stop-opacity="0.5"/>
      <stop offset="1" stop-color="#22D3EE" stop-opacity="0"/>
    </radialGradient>
  </defs>

  <rect width="1000" height="1000" rx="181" fill="url(#ink)"/>
  <rect x="54" y="54" width="892" height="892" rx="139" stroke="#FBBF24" stroke-opacity="0.16" stroke-width="18"/>
  <rect x="114" y="114" width="772" height="772" rx="106" stroke="#FBBF24" stroke-opacity="0.08" stroke-width="12"/>

  <circle cx="646" cy="261" r="110" fill="#2DD4BF" fill-opacity="0.11"/>
  <circle cx="646" cy="261" r="24" fill="#2DD4BF"/>

  <g stroke="url(#amber)" stroke-width="46" stroke-linecap="square">
    <path d="M202 336V664"/>
    <path d="M280 336V664"/>
    <path d="M720 336V664"/>
    <path d="M798 336V664"/>
  </g>
  <g fill="url(#amber)">
    <rect x="196" y="290" width="90" height="34" rx="11"/>
    <rect x="196" y="676" width="90" height="34" rx="11"/>
    <rect x="714" y="290" width="90" height="34" rx="11"/>
    <rect x="714" y="676" width="90" height="34" rx="11"/>
  </g>

  <rect x="390" y="210" width="220" height="520" rx="46" fill="url(#tealGlow)" fill-opacity="0.16"/>
  <path d="M470 336C521 402 529 598 470 664L536 664C597 598 589 402 536 336L470 336Z" fill="url(#tealGlow)"/>
  <path
    d="M472 336H528L436 500H528L436 664"
    stroke="url(#amber)"
    stroke-width="88"
    stroke-linecap="round"
    stroke-linejoin="round"
  />
  <path
    d="M595 530H641L592 700H546L595 530Z"
    fill="#F8FAFC"
    fill-opacity="0.72"
  />
</svg>
